<svg width="45" height="45" viewBox="0 0 45 45" fill="none" xmlns="http://www.w3.org/2000/svg">
<rect width="45" height="45" rx="6" fill="#FFA500"/>
<path fill-rule="evenodd" clip-rule="evenodd" d="M12 12V14.2H14.2L18.16 22.56L16.62 25.2C16.51 25.53 16.4 25.97 16.4 26.3C16.4 27.51 17.39 28.5 18.6 28.5H31.8V26.3H19.04C18.93 26.3 18.82 26.19 18.82 26.08V25.97L19.81 24.1H27.95C28.83 24.1 29.49 23.66 29.82 23L33.78 15.85C34 15.63 34 15.52 34 15.3C34 14.64 33.56 14.2 32.9 14.2H16.62L15.63 12H12ZM18.6 29.6C17.39 29.6 16.4 30.59 16.4 31.8C16.4 33.01 17.39 34 18.6 34C19.81 34 20.8 33.01 20.8 31.8C20.8 30.59 19.81 29.6 18.6 29.6ZM27.4 31.8C27.4 30.59 28.39 29.6 29.6 29.6C30.81 29.6 31.8 30.59 31.8 31.8C31.8 33.01 30.81 34 29.6 34C28.39 34 27.4 33.01 27.4 31.8Z" fill="black" fill-opacity="0.86"/>
</svg>
